<svg xmlns="http://www.w3.org/2000/svg" width="22.688" height="22.687" viewBox="0 0 22.688 22.687"><path d="M15.644-12.375l6.45-6.45a2.027,2.027,0,0,0,0-2.867L20.66-23.125a2.027,2.027,0,0,0-2.867,0l-6.45,6.45-6.45-6.45a2.027,2.027,0,0,0-2.867,0L.594-21.692a2.027,2.027,0,0,0,0,2.867l6.45,6.45L.594-5.925a2.027,2.027,0,0,0,0,2.867L2.027-1.625a2.027,2.027,0,0,0,2.867,0l6.45-6.45,6.45,6.45a2.027,2.027,0,0,0,2.867,0l1.433-1.433a2.027,2.027,0,0,0,0-2.867Z" transform="translate(0 23.719)" fill="#fff"/></svg>