<svg xmlns="http://www.w3.org/2000/svg" width="31" height="23.25" viewBox="0 0 31 23.25"><path d="M30.413-15.573c-1.356,1.054-3.148,2.4-9.324,6.884-1.229.9-3.427,2.9-5.588,2.882-2.149.012-4.3-1.95-5.582-2.882-6.176-4.486-7.974-5.825-9.33-6.878A.362.362,0,0,0,0-15.282V-2.906A2.907,2.907,0,0,0,2.906,0H28.094A2.907,2.907,0,0,0,31-2.906V-15.288A.365.365,0,0,0,30.413-15.573ZM15.5-7.75c1.4.024,3.427-1.768,4.444-2.507,8.035-5.831,8.646-6.339,10.5-7.792A1.449,1.449,0,0,0,31-19.193v-1.15a2.907,2.907,0,0,0-2.906-2.906H2.906A2.907,2.907,0,0,0,0-20.344v1.15a1.458,1.458,0,0,0,.557,1.144c1.853,1.447,2.464,1.962,10.5,7.792C12.073-9.518,14.1-7.726,15.5-7.75Z" transform="translate(0 23.25)" fill="#fff"/></svg>