<svg xmlns="http://www.w3.org/2000/svg" width="28.875" height="28.875" viewBox="0 0 28.875 28.875"><path d="M26.812-26.812a1.982,1.982,0,0,1,1.45.612,1.982,1.982,0,0,1,.612,1.45V0a1.982,1.982,0,0,1-.612,1.45,1.982,1.982,0,0,1-1.45.612H2.062A1.982,1.982,0,0,1,.612,1.45,1.982,1.982,0,0,1,0,0V-24.75A1.982,1.982,0,0,1,.612-26.2a1.982,1.982,0,0,1,1.45-.612ZM8.7-2.062h.064V-15.855H4.447V-2.062ZM6.574-17.725a2.419,2.419,0,0,0,1.772-.741,2.382,2.382,0,0,0,.741-1.74,2.382,2.382,0,0,0-.741-1.74,2.419,2.419,0,0,0-1.772-.741,2.314,2.314,0,0,0-1.74.741,2.436,2.436,0,0,0-.709,1.74,2.436,2.436,0,0,0,.709,1.74A2.314,2.314,0,0,0,6.574-17.725ZM24.75-2.062V-9.6a9.369,9.369,0,0,0-.9-4.705,4.627,4.627,0,0,0-4.189-1.869,4.965,4.965,0,0,0-2.643.709A3.605,3.605,0,0,0,15.6-13.986h-.064v-1.869H11.408V-2.062h4.254V-8.895a5.289,5.289,0,0,1,.451-2.449,2.273,2.273,0,0,1,2.127-1.1,1.847,1.847,0,0,1,1.934,1.225A6.829,6.829,0,0,1,20.5-8.766v6.7Z" transform="translate(0 26.812)" fill="#fff"/></svg>