<svg xmlns="http://www.w3.org/2000/svg" width="28.875" height="25.266" viewBox="0 0 28.875 25.266"><path d="M1.031-20.367H27.844A1.031,1.031,0,0,0,28.875-21.4v-2.578a1.031,1.031,0,0,0-1.031-1.031H1.031A1.031,1.031,0,0,0,0-23.977V-21.4A1.031,1.031,0,0,0,1.031-20.367Zm0,10.312H27.844a1.031,1.031,0,0,0,1.031-1.031v-2.578A1.031,1.031,0,0,0,27.844-14.7H1.031A1.031,1.031,0,0,0,0-13.664v2.578A1.031,1.031,0,0,0,1.031-10.055Zm0,10.312H27.844A1.031,1.031,0,0,0,28.875-.773V-3.352a1.031,1.031,0,0,0-1.031-1.031H1.031A1.031,1.031,0,0,0,0-3.352V-.773A1.031,1.031,0,0,0,1.031.258Z" transform="translate(0 25.008)" fill="#fff"/></svg>