<svg width="238" height="25" viewBox="0 0 238 25" fill="none" xmlns="http://www.w3.org/2000/svg">
<g clip-path="url(#clip0_2851_4)">
<path d="M3.3615 18.0345C2.40907 17.6279 1.65662 17.0417 1.10414 16.2792C0.55166 15.5134 0.266947 14.6121 0.25 13.5718H3.91059C3.95805 14.2698 4.20547 14.8256 4.65627 15.2288C5.10368 15.6354 5.71716 15.8387 6.49674 15.8387C7.29325 15.8387 7.9203 15.649 8.37448 15.2661C8.82867 14.8832 9.05915 14.385 9.05915 13.7649C9.05915 13.26 8.90324 12.8466 8.5948 12.5213C8.28636 12.196 7.89996 11.9385 7.43561 11.7521C6.97126 11.5658 6.33404 11.3591 5.52058 11.1287C4.41562 10.8034 3.51403 10.4814 2.82597 10.1663C2.13453 9.84779 1.54138 9.37001 1.04313 8.72619C0.548271 8.08237 0.297452 7.22507 0.297452 6.15429C0.297452 5.1479 0.548271 4.26688 1.0533 3.5214C1.55832 2.77253 2.26333 2.19987 3.17509 1.80341C4.08684 1.40357 5.1274 1.20703 6.29676 1.20703C8.05249 1.20703 9.47944 1.63399 10.5776 2.4879C11.6758 3.34181 12.2825 4.53118 12.3944 6.05941H8.64225C8.60836 5.4732 8.36093 4.99202 7.89657 4.60912C7.43222 4.22622 6.81873 4.03646 6.05272 4.03646C5.385 4.03646 4.85286 4.20588 4.45629 4.54813C4.05634 4.89037 3.85975 5.38509 3.85975 6.03569C3.85975 6.48976 4.00889 6.86927 4.31055 7.17085C4.61221 7.47243 4.98505 7.71641 5.43245 7.90277C5.87986 8.08914 6.51029 8.30601 7.32376 8.54998C8.42872 8.87528 9.3337 9.20058 10.0319 9.52588C10.7301 9.85118 11.3335 10.3391 11.8385 10.9897C12.3435 11.6403 12.5943 12.4942 12.5943 13.5515C12.5943 14.463 12.3571 15.3067 11.8859 16.0895C11.4148 16.8688 10.7234 17.4923 9.81161 17.9566C8.89985 18.4208 7.81862 18.6512 6.56791 18.6512C5.38161 18.6444 4.31055 18.4411 3.3615 18.0345Z" fill="white"/>
<path d="M24.7728 6.03351C25.5321 6.46047 26.1286 7.09074 26.5557 7.92093C26.9827 8.75112 27.1963 9.74735 27.1963 10.913V18.4796H23.9356V11.3535C23.9356 10.3302 23.678 9.54065 23.1662 8.9917C22.6544 8.44276 21.9562 8.1649 21.0716 8.1649C20.17 8.1649 19.4616 8.43937 18.9396 8.9917C18.4176 9.54404 18.16 10.3302 18.16 11.3535V18.4796H14.896V1.2489H18.1566V7.18562C18.5769 6.62651 19.1362 6.18939 19.8344 5.87086C20.5326 5.55234 21.3088 5.39308 22.163 5.39308C23.1425 5.39308 24.0102 5.60656 24.7728 6.03351Z" fill="white"/>
<path d="M32.2368 17.8628C31.2437 17.3138 30.4641 16.5311 29.8947 15.5213C29.3287 14.5115 29.0439 13.3492 29.0439 12.0277C29.0439 10.7096 29.3354 9.54391 29.9184 8.53413C30.5014 7.52434 31.2945 6.74498 32.3046 6.19265C33.3146 5.64032 34.4399 5.36584 35.6805 5.36584C36.921 5.36584 38.0463 5.64032 39.0564 6.19265C40.0664 6.74498 40.8629 7.52434 41.4425 8.53413C42.0255 9.54391 42.317 10.7062 42.317 12.0277C42.317 13.3458 42.0187 14.5115 41.4188 15.5213C40.8222 16.5311 40.0122 17.3104 38.9953 17.8628C37.9785 18.4151 36.8397 18.6896 35.5822 18.6896C34.3484 18.6896 33.2333 18.4151 32.2368 17.8628ZM37.2566 15.4162C37.7751 15.1282 38.192 14.6979 38.5039 14.1252C38.8157 13.5525 38.9716 12.8511 38.9716 12.0311C38.9716 10.8044 38.6496 9.86243 38.0056 9.20167C37.3616 8.5409 36.5719 8.21221 35.6432 8.21221C34.7145 8.21221 33.9315 8.5409 33.3011 9.20167C32.6706 9.86243 32.3588 10.8044 32.3588 12.0311C32.3588 13.2577 32.6639 14.1998 33.2774 14.8605C33.8908 15.5213 34.6636 15.85 35.5957 15.85C36.1821 15.85 36.738 15.7043 37.2566 15.4162Z" fill="white"/>
<path d="M49.2773 5.96677C50.0128 5.57031 50.8568 5.37378 51.8058 5.37378C52.9074 5.37378 53.9073 5.64486 54.7987 6.19042C55.6901 6.73597 56.3985 7.50517 56.9171 8.50817C57.4357 9.51118 57.6966 10.6701 57.6966 11.9882C57.6966 13.3063 57.4357 14.4754 56.9171 15.4919C56.3951 16.5085 55.6901 17.298 54.7987 17.8537C53.9073 18.4129 52.9074 18.6907 51.8058 18.6907C50.8601 18.6907 50.023 18.4976 49.301 18.1079C48.5791 17.7216 47.9927 17.2303 47.5419 16.6407V24.6274H44.2812V5.58048H47.5419V7.44417C47.9622 6.85457 48.5384 6.36323 49.2773 5.96677ZM53.8869 9.97202C53.5683 9.40613 53.148 8.97579 52.6294 8.68099C52.1075 8.38619 51.5448 8.23709 50.9415 8.23709C50.3517 8.23709 49.7959 8.38957 49.2773 8.69115C48.7553 8.99273 48.3384 9.43324 48.0198 10.0059C47.7012 10.582 47.5419 11.2563 47.5419 12.0322C47.5419 12.8082 47.7012 13.4825 48.0198 14.0586C48.3384 14.6346 48.7553 15.0718 49.2773 15.3733C49.7959 15.6749 50.3517 15.8274 50.9415 15.8274C51.5482 15.8274 52.1109 15.6715 52.6294 15.3632C53.148 15.0514 53.5683 14.6109 53.8869 14.0349C54.2055 13.4622 54.3648 12.7777 54.3648 11.9848C54.3648 11.2088 54.2055 10.5379 53.8869 9.97202Z" fill="white"/>
<path d="M59.8653 3.49821C59.4857 3.13225 59.2959 2.67818 59.2959 2.13602C59.2959 1.59385 59.4857 1.13979 59.8653 0.773826C60.2449 0.411252 60.7229 0.228271 61.2991 0.228271C61.8719 0.228271 62.3498 0.411252 62.7328 0.777214C63.1124 1.14318 63.3022 1.59724 63.3022 2.13941C63.3022 2.68157 63.1124 3.13564 62.7328 3.5016C62.3532 3.86756 61.8753 4.04715 61.2991 4.04715C60.7229 4.04715 60.2449 3.86417 59.8653 3.49821ZM62.9057 5.58216V18.4823H59.645V5.58216H62.9057Z" fill="white"/>
<path d="M71.6629 8.26135H69.4022V18.4812H66.0941V8.26135H64.6265V5.58441H66.0941V4.93381C66.0941 3.35136 66.5449 2.18571 67.4465 1.44023C68.3481 0.694753 69.7072 0.345734 71.5206 0.393173V3.14128C70.7275 3.12772 70.1784 3.25649 69.8665 3.53773C69.5547 3.81898 69.4022 4.32049 69.4022 5.05241V5.5878H71.6629V8.26135Z" fill="white"/>
<path d="M86.2708 5.58508L78.2819 24.5846H74.8111L77.6074 18.1599L72.4385 5.58847H76.0957L79.4275 14.5986L82.8034 5.58847H86.2708V5.58508Z" fill="white"/>
<path d="M96.606 15.1941H89.7085L88.0036 18.481H84.3701L93.6402 1.20288H97.6703L100.809 18.481H97.1517L96.606 15.1941ZM96.162 12.5003L94.9248 5.18441L91.1185 12.5003H96.162Z" fill="white"/>
<path d="M102.709 8.51392C103.228 7.50414 103.94 6.72816 104.841 6.186C105.743 5.64383 106.743 5.36936 107.844 5.36936C108.681 5.36936 109.481 5.55234 110.244 5.91491C111.003 6.28087 111.61 6.76543 112.061 7.36859V1.2489H115.369V18.4796H112.061V16.5719C111.657 17.2089 111.091 17.7206 110.359 18.1102C109.63 18.4965 108.783 18.6931 107.821 18.6931C106.733 18.6931 105.739 18.4152 104.841 17.8561C103.94 17.297 103.231 16.5109 102.709 15.4943C102.187 14.4777 101.93 13.3087 101.93 11.9906C101.93 10.6792 102.187 9.5237 102.709 8.51392ZM111.617 9.99471C111.305 9.42882 110.888 8.9917 110.359 8.69012C109.83 8.38854 109.264 8.23606 108.658 8.23606C108.051 8.23606 107.492 8.38515 106.98 8.67996C106.468 8.97476 106.051 9.4051 105.733 9.97099C105.414 10.5369 105.255 11.2078 105.255 11.9838C105.255 12.7598 105.414 13.4375 105.733 14.0203C106.051 14.6031 106.468 15.0504 106.99 15.3588C107.509 15.6705 108.065 15.823 108.654 15.823C109.261 15.823 109.827 15.6705 110.356 15.3689C110.885 15.0673 111.301 14.6336 111.613 14.0643C111.925 13.4985 112.078 12.8174 112.078 12.0278C112.078 11.2383 111.929 10.5606 111.617 9.99471Z" fill="white"/>
<path d="M123.427 15.483L126.688 5.58847H130.158L125.383 18.4886H121.424L116.675 5.58508H120.17L123.427 15.483Z" fill="white"/>
<path d="M131.709 3.49793C131.329 3.13197 131.139 2.67791 131.139 2.13574C131.139 1.59358 131.329 1.13951 131.709 0.773552C132.088 0.40759 132.566 0.224609 133.142 0.224609C133.719 0.224609 134.193 0.40759 134.576 0.773552C134.956 1.13951 135.145 1.59358 135.145 2.13574C135.145 2.67791 134.956 3.13197 134.576 3.49793C134.196 3.8639 133.719 4.04349 133.142 4.04349C132.566 4.04349 132.088 3.8639 131.709 3.49793ZM134.746 5.58188V18.482H131.485V5.58188H134.746Z" fill="white"/>
<path d="M139.585 18.1169C138.748 17.7374 138.084 17.2223 137.596 16.5683C137.108 15.9177 136.84 15.196 136.792 14.4031H140.077C140.138 14.9012 140.382 15.3112 140.809 15.6365C141.236 15.9618 141.768 16.1244 142.405 16.1244C143.026 16.1244 143.51 15.9991 143.859 15.7517C144.209 15.5043 144.385 15.1858 144.385 14.7961C144.385 14.376 144.171 14.0642 143.744 13.8541C143.317 13.644 142.639 13.417 141.707 13.1663C140.745 12.9324 139.955 12.6919 139.345 12.4445C138.731 12.1971 138.202 11.8142 137.762 11.3026C137.321 10.7909 137.098 10.0996 137.098 9.22878C137.098 8.51379 137.304 7.86319 137.714 7.27359C138.125 6.68398 138.718 6.21637 139.484 5.87751C140.253 5.53527 141.158 5.36584 142.195 5.36584C143.734 5.36584 144.958 5.74875 145.876 6.51795C146.791 7.28714 147.296 8.32404 147.391 9.62523H144.27C144.222 9.11356 144.009 8.70694 143.629 8.40197C143.249 8.10039 142.741 7.94791 142.104 7.94791C141.514 7.94791 141.06 8.05634 140.741 8.27321C140.423 8.49007 140.263 8.79504 140.263 9.18134C140.263 9.61507 140.48 9.94714 140.914 10.1708C141.348 10.3978 142.022 10.6249 142.941 10.8587C143.873 11.0925 144.642 11.3331 145.246 11.5804C145.852 11.8278 146.374 12.2141 146.818 12.7325C147.262 13.2544 147.49 13.9388 147.507 14.7928C147.507 15.5382 147.3 16.2058 146.89 16.7954C146.48 17.385 145.89 17.8458 145.12 18.1813C144.351 18.5168 143.456 18.6828 142.429 18.6828C141.368 18.6896 140.423 18.4998 139.585 18.1169Z" fill="white"/>
<path d="M152.017 17.8628C151.024 17.3138 150.244 16.5311 149.675 15.5213C149.109 14.5115 148.824 13.3492 148.824 12.0277C148.824 10.7096 149.116 9.54391 149.699 8.53413C150.282 7.52434 151.075 6.74498 152.085 6.19265C153.095 5.64032 154.22 5.36584 155.461 5.36584C156.701 5.36584 157.83 5.64032 158.837 6.19265C159.843 6.74498 160.643 7.52434 161.223 8.53413C161.806 9.54391 162.097 10.7062 162.097 12.0277C162.097 13.3458 161.799 14.5115 161.199 15.5213C160.603 16.5311 159.792 17.3104 158.776 17.8628C157.759 18.4151 156.62 18.6896 155.362 18.6896C154.129 18.6896 153.01 18.4151 152.017 17.8628ZM157.037 15.4162C157.555 15.1282 157.972 14.6979 158.284 14.1252C158.596 13.5525 158.748 12.8511 158.748 12.0311C158.748 10.8044 158.427 9.86243 157.783 9.20167C157.139 8.5409 156.349 8.21221 155.42 8.21221C154.488 8.21221 153.708 8.5409 153.078 9.20167C152.448 9.86243 152.136 10.8044 152.136 12.0311C152.136 13.2577 152.441 14.1998 153.054 14.8605C153.668 15.5213 154.441 15.85 155.373 15.85C155.959 15.85 156.515 15.7043 157.037 15.4162Z" fill="white"/>
<path d="M168.964 5.9798C169.639 5.59351 170.411 5.39697 171.282 5.39697V8.81939H170.422C169.398 8.81939 168.625 9.05998 168.103 9.54115C167.581 10.0223 167.324 10.8593 167.324 12.0554V18.4801H164.063V5.58334H167.324V7.58597C167.741 6.90487 168.29 6.36948 168.964 5.9798Z" fill="white"/>
<path d="M175.078 18.1169C174.241 17.7374 173.577 17.2223 173.088 16.5683C172.6 15.9177 172.333 15.196 172.285 14.4031H175.57C175.631 14.9012 175.875 15.3112 176.302 15.6365C176.729 15.9618 177.261 16.1244 177.898 16.1244C178.518 16.1244 179.003 15.9991 179.352 15.7517C179.701 15.5043 179.878 15.1858 179.878 14.7961C179.878 14.376 179.664 14.0642 179.237 13.8541C178.81 13.644 178.132 13.417 177.2 13.1663C176.237 12.9324 175.448 12.6919 174.837 12.4445C174.224 12.1971 173.695 11.8142 173.255 11.3026C172.814 10.7909 172.59 10.0996 172.59 9.22878C172.59 8.51379 172.797 7.86319 173.207 7.27359C173.617 6.68398 174.21 6.21637 174.976 5.87751C175.746 5.53527 176.651 5.36584 177.688 5.36584C179.227 5.36584 180.45 5.74875 181.369 6.51795C182.284 7.28714 182.789 8.32404 182.884 9.62523H179.762C179.715 9.11356 179.501 8.70694 179.122 8.40197C178.742 8.10039 178.234 7.94791 177.596 7.94791C177.007 7.94791 176.552 8.05634 176.234 8.27321C175.915 8.49007 175.756 8.79504 175.756 9.18134C175.756 9.61507 175.973 9.94714 176.407 10.1708C176.841 10.3978 177.515 10.6249 178.434 10.8587C179.366 11.0925 180.135 11.3331 180.738 11.5804C181.345 11.8278 181.867 12.2141 182.311 12.7325C182.755 13.2544 182.982 13.9388 182.999 14.7928C182.999 15.5382 182.792 16.2058 182.382 16.7954C181.972 17.385 181.382 17.8458 180.613 18.1813C179.844 18.5168 178.949 18.6828 177.922 18.6828C176.861 18.6896 175.915 18.4998 175.078 18.1169Z" fill="white"/>
<path d="M185.081 18.2492C184.854 18.0154 184.742 17.7307 184.742 17.3885C184.742 17.0462 184.854 16.765 185.081 16.538C185.305 16.3143 185.59 16.1991 185.932 16.1991C186.257 16.1991 186.532 16.3109 186.759 16.538C186.983 16.7616 187.098 17.0462 187.098 17.3885C187.098 17.7307 186.986 18.0187 186.759 18.2492C186.532 18.483 186.257 18.5982 185.932 18.5982C185.59 18.5982 185.305 18.483 185.081 18.2492Z" fill="white"/>
<path d="M189.395 8.67182C189.924 7.68576 190.653 6.92673 191.585 6.39134C192.517 5.85595 193.581 5.58826 194.774 5.58826C196.344 5.58826 197.635 5.97794 198.652 6.75391C199.669 7.52989 200.326 8.58711 200.621 9.9188H198.875C198.659 9.0039 198.187 8.28553 197.465 7.7637C196.743 7.24525 195.845 6.98433 194.774 6.98433C193.92 6.98433 193.151 7.17748 192.469 7.56716C191.785 7.95684 191.246 8.53289 190.849 9.30209C190.453 10.0713 190.256 11.0133 190.256 12.1315C190.256 13.2497 190.453 14.1951 190.849 14.9711C191.246 15.7471 191.785 16.3299 192.469 16.7162C193.154 17.1059 193.92 17.299 194.774 17.299C195.845 17.299 196.743 17.0381 197.465 16.5197C198.187 16.0012 198.655 15.2727 198.875 14.3442H200.621C200.326 15.6488 199.665 16.6959 198.642 17.4888C197.618 18.2817 196.327 18.6748 194.774 18.6748C193.578 18.6748 192.513 18.4071 191.585 17.8717C190.653 17.3363 189.924 16.5773 189.395 15.5912C188.866 14.6051 188.602 13.453 188.602 12.1349C188.602 10.8168 188.87 9.65789 189.395 8.67182Z" fill="white"/>
<path d="M205.409 17.8649C204.453 17.3295 203.701 16.5705 203.148 15.5844C202.596 14.5984 202.321 13.4463 202.321 12.1281C202.321 10.81 202.603 9.65789 203.158 8.67182C203.718 7.68576 204.477 6.92673 205.44 6.39134C206.402 5.85595 207.48 5.58826 208.676 5.58826C209.873 5.58826 210.954 5.85595 211.924 6.39134C212.893 6.92673 213.656 7.68915 214.205 8.67182C214.757 9.65789 215.032 10.81 215.032 12.1281C215.032 13.4327 214.754 14.5814 214.195 15.5743C213.635 16.5671 212.866 17.3329 211.89 17.8683C210.91 18.4037 209.826 18.6714 208.629 18.6714C207.439 18.668 206.365 18.4003 205.409 17.8649ZM210.964 16.6755C211.68 16.296 212.256 15.72 212.7 14.9542C213.144 14.1884 213.364 13.243 213.364 12.1247C213.364 11.0065 213.147 10.0645 212.713 9.29531C212.279 8.52612 211.703 7.95345 210.991 7.57394C210.276 7.19442 209.5 7.00466 208.663 7.00466C207.826 7.00466 207.05 7.19442 206.334 7.57394C205.619 7.95345 205.05 8.52951 204.623 9.29531C204.196 10.0645 203.982 11.0065 203.982 12.1247C203.982 13.243 204.196 14.185 204.623 14.9542C205.05 15.7234 205.616 16.296 206.324 16.6755C207.029 17.0551 207.802 17.2448 208.643 17.2448C209.483 17.2448 210.249 17.0584 210.964 16.6755Z" fill="white"/>
<path d="M236.34 6.94076C237.279 7.87938 237.75 9.24157 237.75 11.0273V18.4787H236.143V11.2137C236.143 9.83118 235.808 8.77734 235.14 8.04881C234.472 7.32027 233.564 6.95431 232.415 6.95431C231.219 6.95431 230.266 7.35077 229.551 8.1403C228.836 8.93322 228.48 10.0819 228.48 11.5864V18.4787H226.873V11.2137C226.873 9.83118 226.538 8.77734 225.873 8.04881C225.206 7.32027 224.291 6.95431 223.125 6.95431C221.928 6.95431 220.976 7.35077 220.26 8.1403C219.545 8.93322 219.189 10.0819 219.189 11.5864V18.4787H217.559V5.76494H219.189V7.95393C219.593 7.16101 220.169 6.56124 220.911 6.14784C221.657 5.73783 222.487 5.53113 223.402 5.53113C224.504 5.53113 225.47 5.79543 226.3 6.32404C227.131 6.85266 227.734 7.62863 228.107 8.65197C228.449 7.64218 229.036 6.8696 229.866 6.33421C230.697 5.79882 231.639 5.53113 232.696 5.53113C234.184 5.53452 235.401 6.00213 236.34 6.94076Z" fill="white"/>
</g>
<defs>
<clipPath id="clip0_2851_4">
<rect width="237.5" height="24.4028" fill="white" transform="translate(0.25 0.224609)"/>
</clipPath>
</defs>
</svg>
