<svg width="124" height="54" viewBox="0 0 124 54" fill="none" xmlns="http://www.w3.org/2000/svg">
<g clip-path="url(#clip0_2851_6)">
<path d="M108.076 46.2276L101.544 45.6778V30.5591L99.3274 30.4088V45.6998H92.7806C92.7476 44.9411 92.6963 44.2887 92.6963 43.6326C92.6963 34.1692 92.6963 24.7034 92.6963 15.2351C92.6963 11.2511 95.466 8.68912 99.375 8.39225C105.277 7.94876 108.168 12.2883 108.094 17.097C107.988 25.9483 108.061 34.807 108.061 43.6619L108.076 46.2276ZM101.482 24.1341C101.482 21.2019 101.529 18.4091 101.43 15.6346C101.43 15.2058 100.731 14.8026 100.353 14.3848C99.9869 14.7256 99.3567 15.0591 99.3457 15.411C99.2651 18.2991 99.3018 21.1909 99.3018 24.1341H101.482Z" fill="white"/>
<path d="M84.2621 46.191V31.6294L82.0639 31.5304V37.0868C82.0639 39.8356 82.0639 42.5845 82.0639 45.3297C82.0639 46.2203 81.9137 46.8617 80.8036 46.9204C79.1147 47.0157 77.4295 47.2246 75.6123 47.3968V10.7674L81.998 9.90605V25.1311C83.566 25.4096 84.295 25.0541 84.2767 23.5294C84.2328 19.6224 84.2767 15.7153 84.2767 11.8009V9.7118L90.3693 9.11438C90.4133 9.84741 90.4792 10.4302 90.4792 11.0129C90.4792 22.0084 90.4462 33.0038 90.5232 43.9773C90.5232 45.6376 89.8161 46.1287 88.4166 46.1763C87.0904 46.191 85.7751 46.191 84.2621 46.191Z" fill="white"/>
<path d="M15.3866 32.3845L8.79216 32.685C8.79216 29.1335 8.79216 25.8568 8.79216 22.5802C8.79216 21.1874 8.33054 20.3591 6.57201 20.7V24.5667C6.57201 30.9196 6.57201 37.2725 6.57201 43.6255C6.57201 44.1752 6.45844 44.813 6.69291 45.2455C6.92738 45.6779 7.55386 46.0005 8.00448 46.3633C8.2646 45.8942 8.7372 45.4287 8.7372 44.9486C8.81414 42.328 8.77384 39.7038 8.77384 36.7753L15.2108 36.002C15.2621 36.625 15.3427 37.1968 15.3463 37.7686C15.3463 40.7593 15.3647 43.7537 15.3463 46.7445C15.3244 50.9338 11.9209 53.558 7.86893 52.5318C2.5274 51.1463 -0.000488281 47.8917 -0.000488281 42.3353C-0.000488281 34.702 -0.000488281 27.0688 -0.000488281 19.4355C-0.000488281 15.8546 2.31124 13.5713 5.90524 13.9891C11.1662 14.5865 15.731 17.4453 15.3866 23.918C15.2548 26.5899 15.3866 29.2727 15.3866 32.3845Z" fill="white"/>
<path d="M73.2311 30.7497C73.2311 35.1479 73.6195 39.3225 73.1139 43.3945C72.6852 46.836 69.3917 49.5519 64.9038 49.8415C62.1414 50.0211 59.8113 49.3173 58.6427 46.5428C58.3767 45.8081 58.2524 45.0295 58.2763 44.2485C58.2507 36.0715 58.2763 27.8909 58.2433 19.7103C58.225 16.3567 59.8333 14.0037 62.6396 12.5376C65.2481 11.1778 68.0325 10.837 70.7985 12.358C72.3812 13.2266 73.2201 14.5571 73.2458 16.3127C73.2971 19.4867 73.2458 22.6607 73.2751 25.8421C73.2751 26.8537 72.971 27.3411 71.9489 27.6747C70.3515 28.1621 68.8311 28.8988 67.0506 29.6208C67.0506 26.4432 67.0506 23.5257 67.0506 20.6083C67.0506 19.4867 67.2814 17.8447 65.8343 17.8227C64.4788 17.7751 64.4788 19.3878 64.4788 20.535C64.4788 27.4987 64.4421 34.4625 64.5191 41.4263C64.5191 42.1593 65.1932 42.8667 65.5559 43.5851C66.0541 42.852 66.9114 42.1447 66.9774 41.386C67.1752 39.1466 66.9773 36.8705 67.1092 34.6201C67.1609 34.2638 67.2888 33.9229 67.4842 33.6205C67.6795 33.3182 67.9378 33.0616 68.2413 32.8682C69.7141 32.0618 71.326 31.5304 73.2311 30.7497Z" fill="white"/>
<path d="M19.0502 34.6457C17.1817 33.0881 16.7458 31.1529 16.852 28.9831C16.9456 27.274 16.9456 25.561 16.852 23.8519C16.6102 20.0695 19.0319 17.4086 23.0325 16.9358C25.1977 16.6792 27.4288 16.8735 29.627 16.8771C30.1655 16.8771 30.7041 16.9321 31.5028 16.9724C31.5028 20.271 31.5431 23.4634 31.4478 26.6741C31.4478 27.0406 30.7151 27.5647 30.2498 27.704C28.9859 28.0705 27.6853 28.2574 26.1173 28.5689V23.3718C23.9814 23.0052 23.5051 23.3351 23.4685 25.1237C23.4355 26.7107 23.4941 28.2977 23.4685 29.8884C23.4318 31.3948 24.1646 31.9629 25.6007 31.9189C27.1138 31.8712 28.6305 31.9189 30.2938 31.9189V38.1496C28.7331 38.1496 27.1724 38.1973 25.6154 38.1496C24.0583 38.102 23.4172 38.8057 23.4648 40.3487C23.5124 41.8917 23.5491 43.5264 23.4648 45.1134C23.3696 46.8544 24.3331 47.4334 26.0696 47.7706C26.0696 46.1873 26.0916 44.8055 26.0696 43.4238C26.0696 42.5221 26.2528 41.9577 27.3226 41.8038C28.6781 41.6022 30.0007 41.1624 31.4551 40.7959V53.6935C28.2348 53.5322 25.0438 53.7155 22.0067 53.1181C18.7095 52.4694 16.9326 49.6362 16.918 46.2643C16.918 44.2521 16.9693 42.2326 16.918 40.2204C16.7678 38.0653 17.2184 36.1961 19.0502 34.6457Z" fill="white"/>
<path d="M38.4345 16.3456C39.105 23.9764 39.7718 31.5523 40.4825 39.6156C41.1676 31.4497 41.8124 23.7602 42.4682 15.9168L48.8318 14.9858C47.2931 27.4987 45.7947 39.8135 44.2487 52.319L36.731 53.25C36.3133 49.988 35.9286 46.9496 35.5366 43.9148C34.9688 39.4873 34.3826 35.0598 33.8257 30.6287C33.4044 27.2751 33.0124 23.9178 32.6058 20.5605C32.5801 20.3186 32.6058 20.0694 32.6058 19.8275C32.2394 16.5289 32.2394 16.5289 35.6539 16.5032C36.4818 16.5032 37.3245 16.4116 38.4345 16.3456Z" fill="white"/>
<path d="M123.572 49.4053L110.017 46.2936V9.77405C112.061 10.1076 113.966 10.3202 115.802 10.8003C116.168 10.8956 116.443 12.0098 116.447 12.6549C116.487 21.5098 116.531 30.3685 116.425 39.2235C116.403 41.0304 116.938 41.9357 118.689 42.1263C118.872 42.1358 119.054 42.1566 119.235 42.1886C124.023 43.3505 124.595 44.2924 123.572 49.4053Z" fill="white"/>
<path d="M48.3848 51.7108C48.7511 49.2258 49.0882 47.078 49.4106 44.9302C49.4402 44.687 49.4549 44.4422 49.4545 44.1972C49.5791 36.9622 49.8722 29.7236 49.7183 22.4922C49.6744 20.4177 48.9673 18.3249 49.4802 16.2065C49.6084 15.6824 49.9052 14.8431 50.2349 14.7881C52.433 14.4216 54.6312 14.2236 57.4229 13.9084C57.0858 16.1369 56.7854 18.1564 56.4777 20.1685C56.4343 20.4696 56.4111 20.7733 56.4081 21.0775C56.2798 28.4334 55.9941 35.7967 56.1443 43.149C56.1882 45.1611 56.877 47.1477 56.4703 49.2698C56.2835 50.252 55.8988 50.6955 55.1001 50.8238C53.0888 51.1463 51.0592 51.3662 48.3848 51.7108Z" fill="white"/>
<path d="M0.889648 0.0284652C2.66283 0.0284652 4.35175 -0.0228469 6.04067 0.0467909C7.06648 0.0871075 7.19837 0.413306 7.13975 2.11393L3.40288 2.28986L3.29663 3.0009L6.08464 3.51768C6.20187 4.20307 6.32277 4.89945 6.451 5.69112L3.29663 6.11627V6.78333C4.11893 6.89392 4.94725 6.9539 5.77689 6.96292C7.24233 6.89695 7.7992 7.49803 7.53176 9.0374H0.889648V0.0284652Z" fill="white"/>
<path d="M11.3274 0.152954V6.84551L15.2621 7.10207V9.04826H8.92041V0.152954H11.3274Z" fill="white"/>
</g>
<defs>
<clipPath id="clip0_2851_6">
<rect width="124.001" height="53.6832" fill="white" transform="translate(-0.000488281 0.0102539)"/>
</clipPath>
</defs>
</svg>
