<svg width="160" height="23" viewBox="0 0 160 23" fill="none" xmlns="http://www.w3.org/2000/svg">
<g clip-path="url(#clip0_2851_2)">
<path d="M43.238 2.28266C41.5405 1.44991 39.5739 1.02783 37.3898 1.02783C35.2314 1.02783 33.2648 1.44991 31.5444 2.27981C29.8039 3.12112 28.4099 4.35314 27.3994 5.94164C26.3889 7.533 25.8765 9.46088 25.8765 11.6682C25.8765 13.9041 26.3889 15.8377 27.3994 17.4148C28.4099 18.9919 29.8068 20.2068 31.5501 21.0224C33.2677 21.8267 35.2314 22.2317 37.3898 22.2317C39.5711 22.2317 41.5377 21.8238 43.2323 21.0196C44.9499 20.204 46.3268 18.989 47.3258 17.412C48.322 15.8349 48.8287 13.9013 48.8287 11.6682C48.8287 9.46088 48.322 7.53585 47.3258 5.94449C46.3268 4.35599 44.9527 3.12397 43.238 2.28266ZM37.3869 17.449C36.2791 17.449 35.2514 17.2237 34.3297 16.7817C33.4222 16.3482 32.7295 15.7179 32.2085 14.8567C31.6904 14.0011 31.4299 12.9288 31.4299 11.6711C31.4299 10.4134 31.699 9.33539 32.2257 8.46842C32.7524 7.6043 33.4709 6.93981 34.3554 6.49776C35.26 6.04431 36.282 5.81616 37.3869 5.81616C38.5119 5.81616 39.5281 6.05001 40.4069 6.51202C41.2743 6.96832 41.9842 7.63852 42.5138 8.50835C43.0434 9.37532 43.3096 10.4419 43.3096 11.6739C43.3096 12.9316 43.0434 14.0011 42.5138 14.8567C41.9871 15.7094 41.2772 16.3596 40.4012 16.7902C39.5081 17.2266 38.4947 17.449 37.3869 17.449Z" fill="#E0E0E0"/>
<path d="M70.2584 5.83034V1.44983H51.7861V6.19823H63.2107L51.7861 17.4318V21.8123H70.4817V17.0668H58.9254L70.2584 5.83034Z" fill="#E0E0E0"/>
<path d="M91.9131 5.83034V1.44983H73.438V6.19823H84.8654L73.438 17.4318V21.8123H92.1335V17.0668H80.5773L91.9131 5.83034Z" fill="#E0E0E0"/>
<path d="M158.229 5.94735C157.233 4.35884 155.856 3.12397 154.141 2.28266C152.444 1.44991 150.477 1.02783 148.293 1.02783C146.135 1.02783 144.168 1.44991 142.448 2.27981C140.707 3.12112 139.313 4.35314 138.303 5.94164C137.292 7.533 136.78 9.46088 136.78 11.6682C136.78 13.9041 137.292 15.8377 138.303 17.4148C139.313 18.9919 140.71 20.2068 142.453 21.0224C144.171 21.8267 146.135 22.2317 148.293 22.2317C150.474 22.2317 152.441 21.8238 154.136 21.0196C155.853 20.204 157.23 18.989 158.229 17.412C159.225 15.8349 159.732 13.9013 159.732 11.6682C159.732 9.46373 159.225 7.5387 158.229 5.94735ZM148.293 17.449C147.185 17.449 146.158 17.2237 145.236 16.7817C144.328 16.3482 143.636 15.7179 143.115 14.8567C142.597 14.0011 142.336 12.9288 142.336 11.6711C142.336 10.4134 142.605 9.33539 143.132 8.46842C143.659 7.6043 144.377 6.93981 145.262 6.49776C146.166 6.04431 147.188 5.81616 148.293 5.81616C149.418 5.81616 150.434 6.05001 151.313 6.51202C152.18 6.96832 152.89 7.63852 153.42 8.50835C153.95 9.37532 154.216 10.4419 154.216 11.6739C154.216 12.9316 153.95 14.0011 153.42 14.8567C152.893 15.7094 152.183 16.3596 151.307 16.7902C150.414 17.2266 149.398 17.449 148.293 17.449Z" fill="#E0E0E0"/>
<path d="M17.8763 0.768433V14.6971L4.90308 0.768433H0.268555V8.28887H5.30957L18.2227 22.0749L18.2828 22.1405H22.9173V0.768433H17.8763Z" fill="#E0E0E0"/>
<path d="M0.268555 13.2455V22.1406H5.30957V8.28894L0.268555 13.2455Z" fill="#E0E0E0"/>
<path d="M133.161 5.94469C132.717 4.87238 132.096 3.97403 131.309 3.27247C130.527 2.57375 129.6 2.05186 128.555 1.71819C127.533 1.39307 126.405 1.22766 125.206 1.22766C123.869 1.22766 122.635 1.45011 121.536 1.8893C120.442 2.32564 119.472 2.92169 118.656 3.66318C117.981 4.27063 117.408 4.94368 116.947 5.66806C116.523 4.71838 115.948 3.91414 115.232 3.27532C114.451 2.57661 113.523 2.05471 112.479 1.72104C111.457 1.39592 110.329 1.23051 109.129 1.23051C107.744 1.23051 106.479 1.45296 105.368 1.8893C104.26 2.32849 103.287 2.93309 102.477 3.68884C101.987 4.14515 101.555 4.63567 101.183 5.15472V1.64689H95.0913V22.0351H101.183V10.1512C101.349 9.76338 101.587 9.38122 101.893 9.00762C102.477 8.30035 103.255 7.70146 104.209 7.22804C105.156 6.76033 106.235 6.52363 107.418 6.52363C108.943 6.52363 110.034 6.84304 110.664 7.47331C111.294 8.10357 111.611 9.15307 111.611 10.5904V22.0351H117.703V9.70634C117.703 9.59226 117.703 9.47819 117.7 9.36411C117.783 9.24433 117.872 9.1274 117.969 9.00762C118.553 8.2975 119.332 7.70146 120.285 7.22804C121.232 6.76033 122.312 6.52363 123.494 6.52363C125.02 6.52363 126.122 6.84304 126.763 7.47616C127.401 8.10643 127.728 9.15592 127.728 10.5876V22.0322H133.819V9.70634C133.822 8.26898 133.599 7.00274 133.161 5.94469Z" fill="#E0E0E0"/>
</g>
<defs>
<clipPath id="clip0_2851_2">
<rect width="159.463" height="21.4632" fill="white" transform="translate(0.268555 0.768433)"/>
</clipPath>
</defs>
</svg>
