<svg width="76" height="33" viewBox="0 0 76 33" fill="none" xmlns="http://www.w3.org/2000/svg">
<g clip-path="url(#clip0_2851_3)">
<path d="M27.6979 18.1712L25.1483 20.7208L27.6718 23.2443C28.957 24.5295 28.957 26.6194 27.6718 27.9099C27.05 28.5316 26.2193 28.8764 25.3416 28.8764C24.4639 28.8764 23.6332 28.5316 23.0114 27.9099L21.8411 26.7395L21.8254 26.7552L5.63444 10.5642L5.65011 10.5485L4.98137 9.8798C3.69612 8.59455 3.69612 6.50471 4.98137 5.21946C5.60309 4.59774 6.4338 4.25292 7.31153 4.25292C8.18926 4.25292 9.01997 4.59774 9.6417 5.21946L12.1077 7.68547L14.6573 5.13587L12.1913 2.66987C10.8852 1.36372 9.15581 0.647949 7.31153 0.647949C5.46725 0.647949 3.73269 1.35849 2.42654 2.66464C-0.264121 5.3553 -0.264121 9.73873 2.42654 12.4294L6.55919 16.562L9.10879 19.1116L13.7691 23.772L13.5601 23.981L13.1787 24.3624L9.63125 27.9099C9.00953 28.5316 8.17881 28.8764 7.30108 28.8764C6.42335 28.8764 5.59264 28.5316 4.97092 27.9099C3.68567 26.6246 3.68567 24.5348 4.97092 23.2443L8.51841 19.6968L8.89981 19.3154L9.10879 19.1064L6.55919 16.5568L5.96881 17.1472L2.42132 20.6947C-0.269345 23.3854 -0.269345 27.7688 2.42132 30.4595C3.76926 31.8074 5.53517 32.4761 7.30108 32.4761C9.06699 32.4761 10.8381 31.8022 12.1809 30.4595L15.7283 26.912L16.3187 26.3216L20.4514 30.4542C21.7993 31.8022 23.5652 32.4709 25.3311 32.4709C27.0971 32.4709 28.8682 31.7969 30.2109 30.4542C32.9016 27.7636 32.9016 23.3801 30.2109 20.6895L27.6874 18.166L27.6979 18.1712Z" fill="url(#paint0_linear_2851_3)"/>
<path d="M8.90581 19.3204L8.52441 19.7018L8.90581 19.3204Z" fill="url(#paint1_linear_2851_3)"/>
<path d="M15.7386 12.4867L16.3289 11.8963L18.8785 9.3467L19.4689 8.75632L23.0164 5.20882C23.6381 4.58709 24.4688 4.24227 25.3466 4.24227C26.2243 4.24227 27.055 4.58709 27.6767 5.20882C28.962 6.49407 28.962 8.58391 27.6767 9.86915L24.1292 13.4167L23.5389 14.007L20.9893 16.5566L20.3989 17.147L17.7866 19.7593L20.3362 22.3089L22.9485 19.6966L23.5389 19.1062L26.0885 16.5566L26.6788 15.9663L30.2263 12.4188C32.917 9.72809 32.917 5.34466 30.2263 2.654C28.9202 1.34785 27.1909 0.63208 25.3466 0.63208C23.5023 0.63208 21.7677 1.34785 20.4668 2.654L16.9193 6.20149L16.3289 6.79187L13.7793 9.34147L13.189 9.93185L10.5767 12.5441L13.1263 15.0937L15.7386 12.4815V12.4867Z" fill="url(#paint2_linear_2851_3)"/>
<path d="M5.65128 10.5477L5.63281 10.5662L21.8251 26.7585L21.8436 26.74L5.65128 10.5477Z" fill="url(#paint3_linear_2851_3)"/>
<path d="M47.0985 26.281C45.8669 26.281 44.7983 26.0729 43.8816 25.668C42.9649 25.2574 42.2563 24.6725 41.7614 23.9077C41.2665 23.1428 41.019 22.2542 41.019 21.2419C41.019 20.2296 41.2384 19.4029 41.6827 18.638C42.127 17.8732 42.7962 17.2321 43.7017 16.7147C44.6071 16.1973 45.7488 15.8317 47.1323 15.6124L52.8574 14.6732V17.9069L47.9421 18.7786C47.0985 18.9305 46.4743 19.1948 46.0693 19.5716C45.6588 19.9484 45.4563 20.449 45.4563 21.0732C45.4563 21.6975 45.6869 22.1586 46.1537 22.5129C46.6149 22.8672 47.1941 23.0472 47.8859 23.0472C48.7688 23.0472 49.5505 22.856 50.231 22.4792C50.9115 22.1024 51.4346 21.5794 51.8001 20.9101C52.1657 20.2409 52.3513 19.521 52.3513 18.7449V12.0862H42.9087V8.30127H56.6198V25.8929H52.61V22.8841L53.5154 22.8504C53.0599 23.5815 52.52 24.2114 51.8845 24.7231C51.249 25.2405 50.5347 25.6286 49.7474 25.8873C48.96 26.146 48.0827 26.2753 47.1098 26.2753L47.0985 26.281Z" fill="white"/>
<path d="M60.5972 26.3757V0.375732H66.5972V26.3757H60.5972Z" fill="white"/>
<path d="M70.5972 26.3757V7.3207H75.5972V26.3757H70.5972ZM70.5972 5.61063V0.375732H75.5972V5.61063H70.5972Z" fill="white"/>
</g>
<defs>
<linearGradient id="paint0_linear_2851_3" x1="2.44409" y1="31.074" x2="29.902" y2="3.05999" gradientUnits="userSpaceOnUse">
<stop stop-color="white"/>
<stop offset="1" stop-color="white"/>
</linearGradient>
<linearGradient id="paint1_linear_2851_3" x1="8.54887" y1="19.685" x2="8.8779" y2="19.3493" gradientUnits="userSpaceOnUse">
<stop stop-color="white"/>
<stop offset="1" stop-color="white"/>
</linearGradient>
<linearGradient id="paint2_linear_2851_3" x1="11.9661" y1="21.354" x2="30.6666" y2="2.28117" gradientUnits="userSpaceOnUse">
<stop stop-color="white"/>
<stop offset="1" stop-color="white"/>
</linearGradient>
<linearGradient id="paint3_linear_2851_3" x1="21.113" y1="26.044" x2="21.1455" y2="26.0114" gradientUnits="userSpaceOnUse">
<stop stop-color="white"/>
<stop offset="1" stop-color="white"/>
</linearGradient>
<clipPath id="clip0_2851_3">
<rect width="75.1938" height="32.1004" fill="white" transform="translate(0.40332 0.375732)"/>
</clipPath>
</defs>
</svg>
