<svg width="136" height="43" viewBox="0 0 136 43" fill="none" xmlns="http://www.w3.org/2000/svg">
<g clip-path="url(#clip0_2851_5)">
<path d="M50.5356 35.8498C50.9685 34.9408 51.7507 33.5022 52.9099 31.5555C54.0691 29.6088 55.0956 27.6836 56.0105 25.8299L57.2884 23.146C57.2884 23.146 58.5454 23.0887 59.7046 23.0887C61.2033 23.0192 62.6807 23.4734 63.8946 24.377C65.5077 25.7082 65.8429 27.8052 65.8429 29.8164C65.8103 31.3005 65.6796 32.7806 65.4518 34.2466C65.2379 35.6524 65.1003 37.0693 65.0398 38.4907C65.0398 39.4498 65.2354 40.8812 66.1502 41.4179C65.7137 41.8324 65.1994 42.1514 64.6388 42.3557C64.0781 42.5599 63.4828 42.6451 62.889 42.606C59.949 42.606 58.6013 40.5305 58.6013 37.4386C58.6013 36.9935 58.6293 36.5489 58.6851 36.1074L56.8205 36.3007C56.7638 36.6676 56.7358 37.0385 56.7367 37.41C56.7289 38.6703 57.1375 39.8962 57.8959 40.8883C57.4725 41.4718 56.9113 41.9355 56.2652 42.2359C55.6191 42.5363 54.9091 42.6637 54.2018 42.606C51.7507 42.606 49.9141 41.2462 49.9141 38.5981C49.9255 37.6468 50.1375 36.7092 50.5356 35.8498ZM59.3694 32.6363C59.7893 31.1212 60.0238 29.5585 60.0677 27.9842C60.1217 27.5088 59.9913 27.0307 59.7046 26.653C59.3969 27.787 59.0285 28.9027 58.6013 29.9953C58.0566 31.4267 57.7074 32.4287 57.5747 32.8939L59.3694 32.6363Z" fill="white"/>
<path d="M90.4805 31.8346C92.4498 31.7201 93.6998 31.3837 94.5098 30.4676C94.9933 30.6024 95.4235 30.8887 95.7403 31.2866C96.0571 31.6844 96.2446 32.1738 96.2766 32.6863C96.2766 34.6473 94.8171 35.9499 91.6118 35.9499C90.9322 35.9529 90.254 35.8882 89.5866 35.7566C89.5866 36.1145 89.5377 36.5654 89.5377 36.7014C90.2113 36.8419 90.8965 36.9162 91.5838 36.9232C93.6299 36.9232 95.1453 36.4008 96.1439 35.3773C96.6939 36.0459 96.9803 36.9011 96.947 37.7749C96.947 40.7594 94.4679 42.7204 89.859 42.7204C85.25 42.7204 82.8198 41.0886 82.8198 37.8537C82.991 36.0837 83.3349 34.3358 83.8464 32.6362C84.3927 30.8664 84.744 29.0395 84.8939 27.1897C84.9172 26.5846 84.8536 25.9793 84.7053 25.3932C86.0521 24.5818 87.5194 24.0016 89.0489 23.6755C90.7953 23.2191 92.5889 22.9788 94.3911 22.9598C97.3031 22.9598 99.028 24.3912 99.028 26.7173C98.9633 27.5829 98.6689 28.4139 98.1765 29.1204C97.6842 29.8268 97.0127 30.3818 96.2347 30.7252C95.9209 30.3401 95.5225 30.0368 95.0721 29.8402C94.6217 29.6436 94.1322 29.5594 93.6439 29.5944C92.6909 29.6318 91.749 29.8176 90.8506 30.1455C90.7738 30.6179 90.6411 31.169 90.4805 31.8346Z" fill="white"/>
<path d="M45.026 31.806C46.9394 31.6915 48.2872 31.3479 49.0973 30.4676C49.573 30.6439 49.9837 30.9671 50.2726 31.3927C50.5616 31.8183 50.7145 32.3253 50.7104 32.8437C50.7104 34.8334 49.1741 36.2505 46.0456 36.2505C45.4871 36.2392 44.9298 36.1938 44.3766 36.1145C44.3587 36.4196 44.3587 36.7255 44.3766 37.0306C44.28 38.3165 44.6562 39.593 45.4311 40.6091C44.5651 42.0405 42.6378 42.7563 40.7942 42.7563C38.1754 42.7563 36.9883 41.2891 36.9883 39.1777C37.1796 37.2306 37.5777 35.3107 38.1754 33.4521C38.8132 31.4352 39.2118 29.3471 39.3626 27.2326C39.3824 26.6277 39.3189 26.0229 39.174 25.4362C40.47 24.6286 41.885 24.0413 43.364 23.697C45.1755 23.2333 47.0346 22.993 48.9017 22.9813C51.7928 22.9813 53.378 24.4127 53.378 26.7388C53.378 28.3992 51.9185 30.0024 50.5847 30.668C50.2895 30.3026 49.9123 30.0161 49.4855 29.8329C49.0586 29.6496 48.5947 29.5752 48.1336 29.6159C47.1807 29.6545 46.239 29.8403 45.3403 30.167L45.026 31.806Z" fill="white"/>
<path d="M81.7021 24.3125C82.3106 24.7298 82.8055 25.2989 83.1402 25.9662C83.475 26.6336 83.6385 27.3772 83.6156 28.1272C83.6326 28.6615 83.538 29.1933 83.338 29.6871C83.1381 30.1808 82.8375 30.6251 82.4563 30.99C82.0682 31.3667 81.6109 31.6607 81.111 31.8548C80.6111 32.0489 80.0786 32.1394 79.5443 32.1208C78.5743 32.1692 77.6095 31.9492 76.751 31.4838C77.1247 30.7801 77.3283 29.9947 77.3446 29.1936C77.3446 28.3347 76.9396 27.891 76.4018 27.891C75.6197 27.891 74.8935 28.4994 74.2161 29.6874C73.5549 30.8645 73.2125 32.2012 73.2245 33.5594C73.2245 35.5204 74.1672 36.7085 75.6477 36.7085C76.1098 36.701 76.5656 36.5968 76.9871 36.4024C77.4086 36.2079 77.7869 35.9273 78.0988 35.5777C78.8063 34.8566 79.2794 33.9293 79.4535 32.9224C79.863 32.9321 80.2662 33.0266 80.6391 33.2002C81.012 33.3737 81.3468 33.6227 81.6234 33.9323C81.8999 34.2418 82.1126 34.6055 82.2485 35.0014C82.3845 35.3973 82.4409 35.8173 82.4144 36.2361C82.4003 37.1304 82.1895 38.0099 81.7977 38.8092C81.406 39.6084 80.8434 40.3068 80.1519 40.8524C78.5199 42.2356 76.4431 42.9451 74.3278 42.8421C72.2599 42.9197 70.242 42.1791 68.6923 40.7737C67.2049 39.3423 66.4507 37.3741 66.4507 34.7761C66.4611 31.7897 67.4802 28.8991 69.3348 26.5956C70.3171 25.4382 71.5323 24.5126 72.897 23.8825C74.2616 23.2524 75.7432 22.9327 77.2398 22.9455C78.8301 22.9121 80.3906 23.3902 81.7021 24.3125Z" fill="white"/>
<path d="M9.79513 17.5563C9.2081 18.2988 8.46129 18.892 7.61322 19.2893C6.76515 19.6867 5.83883 19.8774 4.90684 19.8465C3.75062 19.8656 2.63117 19.4302 1.77833 18.6299C1.32882 18.1366 0.984329 17.553 0.766731 16.916C0.549132 16.279 0.463188 15.6025 0.514358 14.9297C0.649941 13.2271 0.975627 11.5462 1.48503 9.91973C2.07024 8.02974 2.40609 6.06801 2.48364 4.08673C2.4795 3.28427 2.30307 2.49258 1.96688 1.76785C2.33122 1.32463 2.81824 1.00519 3.36353 0.851748C4.03613 0.548973 4.75918 0.381327 5.49343 0.35791C8.21691 0.35791 9.6834 1.90384 9.6834 4.58773C9.53673 6.1887 9.14555 7.75612 8.52417 9.23265C7.97493 10.5391 7.59235 11.9126 7.3859 13.3193C7.3859 13.9277 7.63031 14.2354 8.11914 14.2354C8.90127 14.2354 9.5158 13.3766 10.1094 11.6875C10.6756 9.97019 10.9588 8.16821 10.9474 6.35552C10.9474 4.39449 10.6261 3.0919 9.97669 2.51218C10.3761 1.84286 10.9557 1.30603 11.6457 0.966258C12.3138 0.580861 13.0649 0.371805 13.8315 0.35791C16.5061 0.35791 17.9306 1.87521 17.9306 4.22988C17.7886 6.42042 17.3804 8.58425 16.7155 10.6712C16.1412 12.4967 15.7458 14.3764 15.5354 16.2823C15.5039 16.9348 15.6413 17.5841 15.9334 18.1646C15.5437 18.6528 15.049 19.0418 14.488 19.3013C13.9271 19.5609 13.3152 19.6838 12.7002 19.6605C12.0576 19.6856 11.4249 19.4931 10.8998 19.1128C10.3747 18.7325 9.98649 18.1854 9.79513 17.5563Z" fill="white"/>
<path d="M26.1573 17.5563C25.7824 16.8865 25.4489 16.1933 25.1587 15.4807C24.9213 14.8151 24.621 13.9634 24.2997 12.94C23.9785 11.9165 23.6782 11.0863 23.4338 10.5066H23.3011C23.2201 11.176 23.1851 11.8504 23.1964 12.5248C23.1964 15.1229 23.6782 16.9479 24.593 18C23.4788 19.096 21.9893 19.6999 20.445 19.6819C18.0986 19.6819 16.8276 18.2505 16.8276 16.225C17.0065 14.2995 17.3954 12.4006 17.9869 10.5638C18.6409 8.45684 19.0305 6.27308 19.1461 4.06522C19.1446 3.26324 18.9705 2.47148 18.6363 1.74634C19.1243 1.24556 19.7119 0.85847 20.359 0.611454C21.0061 0.364438 21.6976 0.263299 22.3863 0.314927C23.3474 0.322587 24.2776 0.663096 25.026 1.28113C25.7673 1.97798 26.3717 2.81366 26.8067 3.74315C27.0856 4.25519 27.3193 4.79171 27.505 5.34633L28.0707 6.94951L28.5875 8.66004L29.0693 10.2346H29.209C29.209 9.65487 29.2579 9.18967 29.2579 8.80319C29.2576 7.50528 29.1313 6.21063 28.8808 4.93838C28.7266 3.93845 28.3801 2.97991 27.8612 2.1185C28.1885 1.55728 28.676 1.11258 29.2579 0.844547C29.9062 0.500045 30.6227 0.311575 31.3528 0.293457C34.0204 0.293457 35.452 1.81075 35.452 4.16542C35.4892 6.37584 35.0754 8.56985 34.2369 10.6068C33.4744 12.2458 33.0399 14.0247 32.959 15.8386C32.9569 16.621 33.1264 17.3939 33.4548 18.1002C32.9941 18.6303 32.4227 19.0471 31.7831 19.3197C31.1436 19.5923 30.4523 19.7137 29.7607 19.6747C29.0264 19.705 28.2986 19.5223 27.6612 19.1475C27.0237 18.7728 26.5024 18.2212 26.1573 17.5563Z" fill="white"/>
<path d="M34.7118 13.0473C35.1378 12.1383 35.9199 10.6998 37.0862 8.75307C38.2524 6.80635 39.2649 4.88111 40.1867 3.02743C40.7524 1.83221 41.4647 0.34354 41.4647 0.34354C41.4647 0.34354 42.7217 0.286282 43.8809 0.286282C45.3795 0.217855 46.8565 0.671981 48.0708 1.57455C49.684 2.90576 50.0192 5.00278 50.0122 7.00675C49.9822 8.49307 49.8539 9.9756 49.6281 11.4441C49.4107 12.8495 49.2731 14.2666 49.2161 15.6882C49.2161 16.6473 49.4116 18.0787 50.3264 18.6083C49.8899 19.0253 49.3748 19.3464 48.8128 19.5519C48.2508 19.7574 47.6537 19.8431 47.0583 19.8035C44.1183 19.8035 42.7775 17.728 42.7775 14.629C42.7778 14.1863 42.8058 13.744 42.8613 13.3049L40.9898 13.4982C40.9389 13.8657 40.9133 14.2364 40.913 14.6075C40.9063 15.8677 41.3147 17.0932 42.0722 18.0859C41.6487 18.6693 41.0876 19.133 40.4415 19.4334C39.7953 19.7339 39.0853 19.8612 38.3781 19.8035C35.9199 19.8035 34.0903 18.4437 34.0903 15.7956C34.1018 14.8443 34.3138 13.9068 34.7118 13.0473ZM43.5387 9.83379C43.9732 8.31845 44.2195 6.75303 44.2719 5.17455C44.3239 4.69822 44.191 4.22005 43.9018 3.84334C43.5954 4.9801 43.2271 6.09835 42.7985 7.19283C42.2608 8.62424 41.9116 9.61907 41.7719 10.0557L43.5387 9.83379Z" fill="white"/>
<path d="M61.6533 6.94242H61.786C62.381 5.85855 62.8766 4.72048 63.2665 3.54282C63.6245 2.70741 63.8598 1.82226 63.9648 0.916177C64.7586 0.456102 65.6667 0.244601 66.5765 0.307829C67.2304 0.279686 67.8831 0.387568 68.4952 0.624969C69.1073 0.86237 69.6661 1.22437 70.138 1.68914C70.5948 2.14437 70.9548 2.69161 71.1952 3.2964C71.4355 3.90119 71.5511 4.55043 71.5347 5.20325C71.4849 7.09543 71.2129 8.97456 70.7246 10.8001C70.1799 13.076 69.2232 15.8673 70.2567 18.1432C69.7947 18.6675 69.2232 19.0781 68.5848 19.3445C67.9464 19.611 67.2575 19.7263 66.5695 19.682C64.3279 19.682 62.9522 18.4653 62.9522 16.3396C62.9657 15.505 63.0926 14.6763 63.3293 13.8776C63.5847 12.9708 63.9021 12.0835 64.279 11.2223C64.7399 10.1488 65.5221 8.68873 65.5221 8.68873H65.1869C63.7902 10.1201 61.8558 13.4553 61.6114 15.9245C61.4226 15.9982 61.2289 16.058 61.0318 16.1034C60.4151 16.2631 59.7659 16.2307 59.1673 16.0104C58.8067 15.82 58.51 15.5234 58.3153 15.1587C58.1075 14.7711 57.9502 14.3573 57.8475 13.9277C57.567 12.5155 57.4847 11.0695 57.603 9.63347C57.603 9.31856 57.6449 9.00364 57.6799 8.68873H57.3726C56.9017 10.3476 56.6526 12.0642 56.6324 13.7917C56.6324 15.7814 57.2748 17.1913 58.1896 17.678C57.7238 18.3375 57.0736 18.8367 56.3251 19.1094C55.5132 19.436 54.6322 19.5396 53.7692 19.41C53.1816 19.3658 52.6116 19.1841 52.1032 18.8789C51.5947 18.5737 51.1613 18.1531 50.8362 17.6494C50.0821 16.3682 50.3055 15.0657 50.5988 13.6772C50.927 12.1098 51.5904 10.4136 52.0444 8.87482C52.0444 8.80325 52.0863 8.72452 52.1142 8.64579C52.5953 7.14159 52.868 5.57562 52.9242 3.99371V3.93645C52.9075 3.19768 52.7535 2.46896 52.4703 1.78934C53.3013 0.851765 54.5653 0.357928 56.2692 0.357928C59.4885 0.336457 60.8991 2.9631 61.6533 6.94242Z" fill="white"/>
<path d="M80.4102 17.5563C79.8232 18.2988 79.0764 18.892 78.2283 19.2893C77.3802 19.6867 76.4539 19.8774 75.5219 19.8465C74.4817 19.8953 73.4522 19.6128 72.575 19.0378C71.8598 18.5363 71.3463 17.7862 71.1294 16.9265C70.9814 16.1292 71.0053 15.3085 71.1993 14.5217C71.3459 13.7344 71.5205 12.9615 71.716 12.1885L71.7789 11.9237C71.8836 11.5157 71.9884 11.1078 72.1001 10.6998C72.6956 8.53829 73.031 6.31023 73.0987 4.06525C73.0981 3.26238 72.9215 2.46991 72.5819 1.74637C72.9555 1.29702 73.4556 0.977046 74.0135 0.830264C74.6861 0.527489 75.4092 0.359842 76.1434 0.336426C78.8669 0.336426 80.3334 1.88235 80.3334 4.56624C80.1902 6.16784 79.7989 7.73581 79.1741 9.21117C78.6249 10.5176 78.2423 11.8911 78.0359 13.2978C78.0359 13.9062 78.2803 14.2139 78.7691 14.2139C79.5512 14.2139 80.1658 13.3551 80.7594 11.666C81.3256 9.94871 81.6088 8.14672 81.5973 6.33403C81.5973 4.373 81.2761 3.07042 80.6267 2.4907C81.027 1.81954 81.6094 1.28237 82.3026 0.944774C82.968 0.558836 83.717 0.3497 84.4814 0.336426C87.156 0.336426 88.5806 1.85372 88.5806 4.20839C88.4383 6.3983 88.0325 8.56181 87.3725 10.6497C86.73 12.94 85.8362 15.4163 87.1281 17.6636C86.1711 18.8055 84.8138 19.5151 83.3501 19.639C82.7044 19.6735 82.0657 19.4879 81.5339 19.1111C81.002 18.7343 80.6068 18.1876 80.4102 17.5563Z" fill="white"/>
<path d="M99.7119 0.52962C100.706 0.820785 101.609 1.37347 102.331 2.1328C103.054 2.8994 103.451 3.92916 103.434 4.99562C103.476 5.70579 103.296 6.41113 102.919 7.0086C102.542 7.60607 101.988 8.06436 101.339 8.31649C100.814 7.56066 100.156 6.91247 99.3977 6.40556C98.6478 5.82913 97.7437 5.50193 96.8069 5.46798C96.1086 5.46798 95.6966 5.71848 95.6966 6.18369C95.6966 6.89939 96.751 7.35029 98.043 7.90138C99.9634 8.55983 102.414 9.9483 102.387 13.3694C102.415 14.2628 102.248 15.1514 101.897 15.97C101.547 16.7886 101.022 17.5165 100.361 18.1002C99.0136 19.3169 97.1561 19.9252 94.7748 19.9252C92.9029 20.0153 91.0544 19.4694 89.5164 18.3721C88.8735 17.883 88.3577 17.2395 88.0144 16.4982C87.671 15.757 87.5105 14.9406 87.5471 14.1209C87.5471 12.2099 88.3572 10.7213 89.6421 10.1415C90.0294 11.1729 90.669 12.0849 91.4996 12.7896C92.2372 13.5777 93.2309 14.0614 94.2929 14.1495C95.0262 14.1495 95.3753 13.8704 95.3753 13.3193C95.3753 11.2437 89.1463 11.5228 89.1463 6.16222C89.1275 5.32324 89.292 4.49058 89.628 3.72526C89.9639 2.95993 90.4626 2.28132 91.0876 1.73916C92.3772 0.579721 94.1579 0 96.4298 0C97.5432 0.0115768 98.6489 0.190005 99.7119 0.52962Z" fill="white"/>
<path d="M110.466 8.90335C112.435 8.79599 113.692 8.45245 114.503 7.54351C114.987 7.67734 115.417 7.96342 115.734 8.36145C116.051 8.75949 116.238 9.2494 116.269 9.76219C116.269 11.7232 114.81 13.0187 111.604 13.0187C110.925 13.0257 110.246 12.9609 109.579 12.8254C109.579 13.1904 109.523 13.6342 109.523 13.7773C110.2 13.9143 110.887 13.9885 111.577 13.9992C113.623 13.9992 115.131 13.4695 116.13 12.4461C116.683 13.113 116.972 13.9687 116.94 14.8437C116.94 17.8282 114.461 19.7964 109.852 19.7964C105.243 19.7964 102.812 18.1646 102.812 14.9296C102.983 13.1578 103.325 11.4078 103.832 9.70493C104.383 7.93607 104.737 6.10892 104.887 4.25843C104.906 3.65351 104.843 3.04876 104.698 2.46201C106.046 1.65517 107.513 1.07751 109.042 0.751471C110.785 0.292153 112.577 0.0518205 114.377 0.0357666C117.289 0.0357666 119.021 1.46717 119.021 3.80037C118.954 4.66533 118.658 5.49532 118.166 6.20138C117.674 6.90743 117.004 7.46293 116.227 7.80832C115.915 7.42053 115.518 7.11487 115.067 6.9169C114.616 6.71892 114.126 6.63439 113.637 6.67035C112.683 6.70837 111.741 6.89666 110.843 7.2286C110.766 7.68665 110.634 8.23774 110.466 8.90335Z" fill="white"/>
<path d="M133.637 1.99687C132.394 0.694292 130.536 0.0286865 128.05 0.0286865C126.532 0.0452827 125.024 0.286336 123.574 0.744391C122.198 1.13504 120.881 1.7204 119.663 2.48355C119.811 3.06967 119.875 3.67494 119.852 4.27997C119.881 6.12075 119.645 7.95587 119.153 9.72648C118.646 11.4293 118.305 13.1794 118.134 14.9511C118.134 17.8139 119.901 19.8179 123.895 19.8179C126.042 19.8262 128.133 19.1177 129.852 17.7996C131.613 16.5255 133.05 14.8369 134.042 12.8756C134.975 11.0891 135.474 9.09774 135.494 7.07122C135.533 6.14088 135.389 5.21203 135.07 4.34016C134.751 3.4683 134.263 2.67133 133.637 1.99687ZM128.748 5.99051C128.744 6.27043 128.725 6.54991 128.693 6.82788C128.642 7.30954 128.563 7.78758 128.455 8.25929C128.308 8.91058 128.106 9.55471 127.91 10.1845C127.436 11.7233 126.367 13.942 124.558 14.9654C124.979 14.203 125.308 13.3906 125.536 12.5464C125.953 10.9283 126.21 9.27151 126.304 7.60084C126.304 7.33603 126.374 6.70621 126.423 6.30541C126.451 5.74021 126.611 5.19022 126.891 4.70224C126.976 4.56838 127.092 4.45772 127.228 4.37976C127.364 4.3018 127.517 4.25886 127.672 4.25464C127.828 4.25041 127.983 4.28503 128.123 4.35551C128.263 4.426 128.384 4.53024 128.476 4.6593C128.707 5.06097 128.809 5.52631 128.769 5.99051H128.748Z" fill="white"/>
</g>
<defs>
<clipPath id="clip0_2851_5">
<rect width="135" height="42.8519" fill="white" transform="translate(0.5)"/>
</clipPath>
</defs>
</svg>
