<?xml version="1.0" standalone="no"?>
<!DOCTYPE svg PUBLIC "-//W3C//DTD SVG 20010904//EN"
 "http://www.w3.org/TR/2001/REC-SVG-20010904/DTD/svg10.dtd">
<svg version="1.0" xmlns="http://www.w3.org/2000/svg"
 width="260.000000pt" height="260.000000pt" viewBox="0 0 260.000000 260.000000"
 preserveAspectRatio="xMidYMid meet">
<metadata>
Created by potrace 1.11, written by Peter Selinger 2001-2013
</metadata>
<g transform="translate(0.000000,260.000000) scale(0.100000,-0.100000)"
fill="#000000" stroke="none">
<path d="M260 2586 c-101 -28 -183 -98 -228 -194 l-27 -57 0 -1035 0 -1035 33
-67 c47 -97 120 -156 227 -184 73 -20 1997 -20 2070 0 107 28 180 87 227 184
l33 67 0 1035 0 1035 -27 57 c-29 62 -97 136 -149 164 -86 44 -83 44 -1124 43
-759 -1 -1001 -4 -1035 -13z m1310 -642 c96 -22 215 -84 288 -150 l64 -57
-124 -124 c-67 -67 -127 -123 -132 -123 -5 0 -29 18 -53 41 -25 22 -69 52
-100 66 -48 22 -65 25 -137 21 -97 -5 -146 -28 -203 -92 -49 -55 -73 -127 -73
-215 0 -137 55 -237 157 -288 49 -23 70 -28 133 -27 96 1 171 33 239 103 l48
49 137 -115 137 -114 -38 -45 c-44 -54 -139 -124 -215 -159 -201 -92 -483 -88
-677 10 -180 90 -296 244 -337 446 -32 157 -4 336 72 466 41 71 150 180 224
223 163 97 388 129 590 84z"/>
</g>
</svg>
